<svg xmlns="http://www.w3.org/2000/svg" viewBox="0 0 720 340" width="720" height="340" role="img" aria-label="Placeholder">
  <rect width="720" height="340" fill="#f7f7f9"/>
  <text x="360" y="268" text-anchor="middle" font-family="-apple-system, Helvetica, Arial, sans-serif" font-size="260" font-weight="700" fill="#ededf1" letter-spacing="-10">01</text>
  <g>
    <rect x="216" y="112" width="76" height="76" rx="19" fill="#fff" stroke="#e2e2e7" stroke-width="2"/>
    <rect x="238" y="140" width="32" height="6" rx="3" fill="#dcdce2"/>
    <rect x="238" y="154" width="32" height="6" rx="3" fill="#e8e8ee"/>
    <rect x="306" y="112" width="76" height="76" rx="19" fill="#fff" stroke="#e2e2e7" stroke-width="2"/>
    <circle cx="344" cy="150" r="17" fill="none" stroke="#dcdce2" stroke-width="5"/>
    <rect x="396" y="112" width="76" height="76" rx="19" fill="#fff" stroke="#e2e2e7" stroke-width="2"/>
    <path d="M419 138h34a6 6 0 0 1 6 6v18a6 6 0 0 1-6 6h-20l-14 10v-34a6 6 0 0 1 0 0z" fill="#e4e4ea"/>
  </g>
  <text x="360" y="316" text-anchor="middle" font-family="-apple-system, Helvetica, Arial, sans-serif" font-size="12" font-weight="600" fill="#bcbcc4" letter-spacing="1.4">PLACEHOLDER</text>
</svg>
